<svg xmlns="http://www.w3.org/2000/svg" viewBox="0 0 1200 630" role="img" aria-labelledby="title desc">
  <title id="title">agbrowse social preview</title>
  <desc id="desc">A polished browser automation command surface for AI agents.</desc>
  <rect width="1200" height="630" fill="#07111f"/>
  <path d="M0 490c220-64 395-84 590-44 202 42 372 26 610-62v246H0Z" fill="#0f2a3d"/>
  <path d="M0 92c160 58 320 65 508 21 230-53 438-35 692 63V0H0Z" fill="#0c1f33"/>
  <rect x="80" y="78" width="1040" height="474" rx="32" fill="#0b1220" stroke="#1e3a5f" stroke-width="2"/>
  <rect x="110" y="112" width="980" height="54" rx="17" fill="#111827"/>
  <circle cx="144" cy="139" r="8" fill="#ef4444"/>
  <circle cx="171" cy="139" r="8" fill="#f59e0b"/>
  <circle cx="198" cy="139" r="8" fill="#22c55e"/>
  <rect x="252" y="126" width="360" height="26" rx="13" fill="#0f172a"/>
  <text x="284" y="145" fill="#93c5fd" font-family="Inter, Arial, sans-serif" font-size="15">agbrowse://cdp/web-ai</text>
  <text x="130" y="236" fill="#38bdf8" font-family="Inter, Arial, sans-serif" font-size="28" font-weight="700">AGBROWSE</text>
  <text x="130" y="304" fill="#f8fafc" font-family="Inter, Arial, sans-serif" font-size="64" font-weight="800">Browser automation</text>
  <text x="130" y="373" fill="#f8fafc" font-family="Inter, Arial, sans-serif" font-size="64" font-weight="800">for AI agents</text>
  <text x="132" y="430" fill="#cbd5e1" font-family="Inter, Arial, sans-serif" font-size="26">CDP control, web-ai sessions, traces, screenshots, source audits.</text>
  <g transform="translate(760 230)">
    <rect width="250" height="164" rx="22" fill="#102033" stroke="#334155"/>
    <text x="28" y="50" fill="#dbeafe" font-family="SFMono-Regular, Menlo, monospace" font-size="19">$ agbrowse status</text>
    <text x="28" y="88" fill="#86efac" font-family="SFMono-Regular, Menlo, monospace" font-size="19">running: true</text>
    <text x="28" y="126" fill="#7dd3fc" font-family="SFMono-Regular, Menlo, monospace" font-size="19">target: stable</text>
  </g>
  <g fill="#22c55e">
    <circle cx="916" cy="428" r="11"/>
    <circle cx="954" cy="428" r="11"/>
    <circle cx="992" cy="428" r="11"/>
  </g>
</svg>
